#!OML:ASF F:\VICON\USERDATA\INSTALL\rory3\rory3.ASF
:FULLY-SPECIFIED
:DEGREES
46
root 0.13667175831940456 17.327328672431594 18.541183086400558 0.22591682912327937 -4.682254680324682 -5.787489681424024
lfemur -21.08917647615479 4.597467262115036 -9.333229304115692
ltibia 81.93877812297245
lfoot -1.3395689761413352 -2.330187236051265
ltoes -0.8163337246449318
rfemur -17.096831640041763 5.403181234264482 34.46617999468672
rtibia 46.45701245372676
rfoot -21.758079655446934 -16.356558074062725
rtoes 1.77250396330734
lowerback 13.983436358532286 0.7255237773674855 3.364625358442921
upperback 0.418308182910801 1.858388918550856 3.3702947536036336
thorax -7.68404929774535 0.8350299297570086 1.3225186251608232
lowerneck -19.829916806936133 -2.8436995464672243 -1.3897675722922893
upperneck 16.507637388333354 -3.604993613719584 0.7804343582688811
head 8.390958951592864 -1.7076048037806335 -0.002853075969229568
lclavicle -2.6645505308683897e-15 4.022927851692998e-16
lhumerus -40.52167699526381 -7.490689102435226 92.27133649864764
lradius 56.946538007217335
lwrist 18.397890096985794
lhand -26.086175857172776 13.444883790307228
lfingers 7.125019999999999
lthumb 0.4625446602603289 43.41743937097161
rclavicle -2.6645505308683897e-15 4.022927851692998e-16
rhumerus -35.21193474638078 -3.513805532757415 -87.37206304696542
rradius 65.53860960440743
rwrist -1.5511091185340093
rhand -17.756797786087457 30.71344922072416
rfingers 7.125019999999999
rthumb 8.50474145708417 0.5978894579326842
47
root 0.10599967571197794 17.353470520121494 18.99679294646339 0.5301137044275142 -3.9783297634222032 -6.090574327095466
lfemur -25.417334060244492 4.29285685079645 -9.549960635107055
ltibia 81.16593645828405
lfoot -3.0405066694501124 -1.4305843235576705
ltoes -1.7280903778857732
rfemur -14.17392448790042 4.964707170796667 34.67283547715422
rtibia 45.171216372601094
rfoot -21.86680456644325 -16.571139027578248
rtoes -1.7631032853208612
lowerback 13.810937555757672 0.9101493440413556 3.763430508899532
upperback 0.31392683726121945 2.1603179656424976 3.2779205860750054
thorax -7.658331498371947 0.9621912270435224 0.8617248059125954
lowerneck -19.879068398002712 -3.0460145311134794 -1.4363536418910279
upperneck 16.374087279709066 -3.899964758849645 0.9785366783303328
head 8.359929007994753 -1.8311896788249769 0.033040492053550585
lclavicle -2.8915679263234575e-15 2.431257377135795e-16
lhumerus -42.24937327399511 -7.641781734075578 92.51674866521483
lradius 57.72001080948108
lwrist 18.636173139432756
lhand -25.55219141815998 13.42512512923509
lfingers 7.125019999999999
lthumb 0.9782239984110241 43.3850263891767
rclavicle -2.8915679263234575e-15 2.431257377135795e-16
rhumerus -34.05321491486292 -2.5023441908300095 -87.18177065353099
rradius 66.60034849889446
rwrist -1.8137513768112692
rhand -17.736679866234148 30.903321989257822
rfingers 7.125019999999999
rthumb 8.524219682529818 0.7780928983837311
48
root 0.09678266455301088 17.418858018831063 19.9207254782252 0.795646546386449 -3.215402036747916 -6.215469579559306
lfemur -28.758994924998518 3.7117367506184316 -10.044183708332245
ltibia 79.47243691162791
lfoot -4.207123046154093 -0.6149021785788258
ltoes -2.71216104362795
rfemur -10.702163806448652 4.482001459993111 34.79962511012772
rtibia 43.457972166284975
rfoot -20.748765565786194 -15.506333808751764
rtoes -4.665359637437598
lowerback 13.599084555063676 1.125769284127613 4.259046051486823
upperback 0.19170536110908748 2.5075249042787644 3.1413682073971785
thorax -7.602764927993126 1.1048962990776863 0.3537580100624248
lowerneck -19.847709168486013 -3.250813302462153 -1.5062026156431818
upperneck 16.378922612308386 -4.197214150250017 1.1820817293086217
head 8.368016017166395 -1.9567913494073457 0.06887300383168798
lclavicle -2.7146819630853303e-15 3.6714136288120317e-16
lhumerus -43.8219214966128 -7.726246854291964 92.71113167297423
lradius 58.76429310636957
lwrist 18.999144936648868
lhand -24.881095827899834 13.370091490623887
lfingers 7.125019999999999
lthumb 1.6263120713903352 43.31538891893725
rclavicle -2.7146819630853303e-15 3.6714136288120317e-16
rhumerus -33.05218657179295 -1.7345766856050617 -86.88786484823444
rradius 67.93566732393003
rwrist -2.1697105723779084
rhand -17.71498481220344 31.196309495356427
rfingers 7.125019999999999
rthumb 8.545255496868748 1.0693079752294596
49
root 0.10152943228615709 17.510017457833428 20.642529125657113 0.963851501091739 -2.5028601743719125 -6.277482525267215
lfemur -31.604252538914366 2.8360605699991277 -10.901105521497726
ltibia 76.14495778753968
lfoot -5.30579514770076 -0.09513754799747742
ltoes -4.157162342824288
rfemur -7.20425453177447 3.908842761260317 34.66307231466929
rtibia 40.865741951672724
rfoot -18.458214862883363 -13.538504030409788
rtoes -6.843639272040523
lowerback 13.328216045957385 1.332382443757319 4.730812852713367
upperback 0.03852301940327957 2.831676660966375 2.9387625502308814
thorax -7.537454710943631 1.2352876079394157 -0.2607889104515506
lowerneck -19.7458778606329 -3.456918985430358 -1.59536957600833
upperneck 16.473217139973016 -4.497084370104478 1.348641550133355
head 8.395864726081625 -2.0851517480194937 0.09204941631863217
lclavicle -2.8059472496909108e-15 3.031510038819409e-16
lhumerus -45.53420907003455 -7.656572601736021 92.76493633516554
lradius 59.83844724464327
lwrist 19.37073120648037
lhand -24.309461025811657 13.312719602460124
lfingers 7.125019999999999
lthumb 2.17834562356903 43.245285806189244
rclavicle -2.8059472496909108e-15 3.031510038819409e-16
rhumerus -32.39477417027489 -1.254380553126449 -86.6057755743402
rradius 69.2499874031875
rwrist -2.5302441141659378
rhand -17.721756688312844 31.43553082391056
rfingers 7.125019999999999
rthumb 8.53883915141805 1.3297979460809026
